<svg width="20" height="20" viewBox="0 0 20 20" fill="none" xmlns="http://www.w3.org/2000/svg">
<path fill-rule="evenodd" clip-rule="evenodd" d="M9.53467 1.99658C9.83201 1.86442 10.1714 1.86442 10.4688 1.99658L16.7377 4.78275C17.6483 5.18746 17.6483 6.47981 16.7377 6.88452L10.4688 9.67069C10.1714 9.80285 9.83202 9.80285 9.53467 9.67069L3.26577 6.88452C2.35519 6.47981 2.35518 5.18746 3.26577 4.78275L9.53467 1.99658ZM10.0017 3.21161L4.10216 5.83364L10.0017 8.45566L15.9013 5.83364L10.0017 3.21161ZM1.90775 9.73631C2.05354 9.40827 2.43767 9.26053 2.76571 9.40632L10.0017 12.6223L17.2377 9.40632C17.5658 9.26053 17.9499 9.40827 18.0957 9.73631C18.2415 10.0644 18.0938 10.4485 17.7657 10.5943L10.4688 13.8374C10.1714 13.9695 9.83202 13.9695 9.53467 13.8374L2.23773 10.5943C1.90969 10.4485 1.76195 10.0644 1.90775 9.73631ZM2.76571 13.573C2.43767 13.4272 2.05354 13.5749 1.90775 13.903C1.76195 14.231 1.90969 14.6151 2.23773 14.7609L9.53467 18.004C9.83202 18.1362 10.1714 18.1362 10.4688 18.004L17.7657 14.7609C18.0938 14.6151 18.2415 14.231 18.0957 13.903C17.9499 13.5749 17.5658 13.4272 17.2377 13.573L10.0017 16.789L2.76571 13.573Z" fill="#A0A4A8"/>
</svg>
