<svg width="14" height="14" viewBox="0 0 14 14" fill="none" xmlns="http://www.w3.org/2000/svg">
<path fill-rule="evenodd" clip-rule="evenodd" d="M0.350007 6.64999C0.156703 6.8433 0.156703 7.1567 0.350007 7.35001L2.80005 9.80005C2.99336 9.99336 3.30676 9.99336 3.50007 9.80005L5.95011 7.35001C6.14341 7.1567 6.14341 6.8433 5.95011 6.64999L3.50007 4.19995C3.30676 4.00664 2.99336 4.00664 2.80005 4.19995L0.350007 6.64999ZM4.20024 2.79976C4.00694 2.99306 4.00694 3.30647 4.20024 3.49977L6.65029 5.94982C6.84359 6.14312 7.157 6.14312 7.3503 5.94982L9.80035 3.49977C9.99365 3.30647 9.99365 2.99306 9.80035 2.79976L7.3503 0.349713C7.157 0.156409 6.84359 0.156409 6.65029 0.349712L4.20024 2.79976ZM8.05025 6.64999C7.85695 6.8433 7.85695 7.1567 8.05025 7.35001L10.5003 9.80005C10.6936 9.99336 11.007 9.99336 11.2003 9.80005L13.6504 7.35001C13.8437 7.1567 13.8437 6.8433 13.6504 6.64999L11.2003 4.19995C11.007 4.00664 10.6936 4.00664 10.5003 4.19995L8.05025 6.64999ZM4.20024 10.5C4.00694 10.6933 4.00694 11.0067 4.20024 11.2L6.65029 13.6501C6.84359 13.8434 7.157 13.8434 7.3503 13.6501L9.80035 11.2C9.99365 11.0067 9.99365 10.6933 9.80035 10.5L7.3503 8.04995C7.157 7.85665 6.84359 7.85665 6.65029 8.04995L4.20024 10.5Z" fill="#25282B"/>
</svg>
