<svg width="20" height="20" viewBox="0 0 20 20" fill="none" xmlns="http://www.w3.org/2000/svg">
<path d="M10.0013 18.3322C14.6037 18.3322 18.3346 14.6012 18.3346 9.99886C18.3346 5.39649 14.6037 1.66553 10.0013 1.66553C5.39893 1.66553 1.66797 5.39649 1.66797 9.99886C1.66797 14.6012 5.39893 18.3322 10.0013 18.3322Z" stroke="#586069" stroke-width="1.5" stroke-linecap="round" stroke-linejoin="round"/>
<path d="M6.66667 2.49902H7.5C5.875 7.36569 5.875 12.6324 7.5 17.499H6.66667" stroke="#586069" stroke-width="1.5" stroke-linecap="round" stroke-linejoin="round"/>
<path d="M12.5 2.49902C14.125 7.36569 14.125 12.6324 12.5 17.499" stroke="#586069" stroke-width="1.5" stroke-linecap="round" stroke-linejoin="round"/>
<path d="M2.5 13.3324V12.499C7.36667 14.124 12.6333 14.124 17.5 12.499V13.3324" stroke="#586069" stroke-width="1.5" stroke-linecap="round" stroke-linejoin="round"/>
<path d="M2.5 7.49902C7.36667 5.87402 12.6333 5.87402 17.5 7.49902" stroke="#586069" stroke-width="1.5" stroke-linecap="round" stroke-linejoin="round"/>
</svg>
