<svg width="18" height="18" viewBox="0 0 18 18" fill="none" xmlns="http://www.w3.org/2000/svg">
<g id="Home">
<path id="Home_2" d="M6.63105 16.3093V13.7537C6.63104 13.1037 7.16097 12.5755 7.81755 12.5712H10.2226C10.8823 12.5712 11.4171 13.1006 11.4171 13.7537V13.7537V16.3173C11.417 16.8692 11.8619 17.3202 12.4192 17.3332H14.0226C15.621 17.3332 16.9167 16.0504 16.9167 14.468V14.468V7.19803C16.9082 6.57553 16.6129 5.99096 16.115 5.6107L10.6315 1.23759C9.67082 0.476142 8.30521 0.476142 7.34455 1.23759L1.88506 5.61863C1.38526 5.99736 1.08953 6.58289 1.08337 7.20597V14.468C1.08337 16.0504 2.3791 17.3332 3.97747 17.3332H5.58084C6.152 17.3332 6.61502 16.8748 6.61502 16.3093V16.3093" stroke="#A0A4A8" stroke-width="1.3" stroke-linecap="round" stroke-linejoin="round"/>
</g>
</svg>
