<svg width="18" height="18" viewBox="0 0 18 18" fill="none" xmlns="http://www.w3.org/2000/svg">
<g id="Home">
<path id="Home_2" d="M6.62971 16.3098V13.7542C6.6297 13.1042 7.15963 12.576 7.81621 12.5717H10.2213C10.881 12.5717 11.4158 13.1011 11.4158 13.7542V13.7542V16.3178C11.4156 16.8697 11.8606 17.3207 12.4179 17.3337H14.0213C15.6196 17.3337 16.9154 16.0509 16.9154 14.4685V14.4685V7.19852C16.9068 6.57601 16.6116 5.99145 16.1137 5.61119L10.6301 1.23808C9.66948 0.476631 8.30387 0.476631 7.34321 1.23808L1.88372 5.61912C1.38391 5.99784 1.08819 6.58338 1.08203 7.20646V14.4685C1.08203 16.0509 2.37776 17.3337 3.97612 17.3337H5.5795C6.15066 17.3337 6.61368 16.8753 6.61368 16.3098V16.3098" stroke="#4B67E2" stroke-width="1.3" stroke-linecap="round" stroke-linejoin="round"/>
</g>
</svg>
