<svg width="25" height="24" viewBox="0 0 25 24" fill="none" xmlns="http://www.w3.org/2000/svg">
<g id="icon">
<path id="Vector" d="M21.5 11.4384L13.4628 19.4644C12.4782 20.4476 11.1427 21 9.75028 21C8.35782 21 7.02239 20.4476 6.03777 19.4644C5.05315 18.4811 4.5 17.1476 4.5 15.7571C4.5 14.3665 5.05315 13.033 6.03777 12.0497L14.075 4.02375C14.7314 3.36825 15.6217 3 16.55 3C17.4783 3 18.3686 3.36825 19.025 4.02375C19.6814 4.67924 20.0502 5.56829 20.0502 6.4953C20.0502 7.42231 19.6814 8.31135 19.025 8.96685L10.979 16.9928C10.6508 17.3206 10.2057 17.5047 9.74154 17.5047C9.27738 17.5047 8.83224 17.3206 8.50403 16.9928C8.17583 16.6651 7.99144 16.2206 7.99144 15.7571C7.99144 15.2935 8.17583 14.849 8.50403 14.5213L15.929 7.11537" stroke="#007AFF" stroke-width="1.4" stroke-linecap="round" stroke-linejoin="round"/>
</g>
</svg>
