<svg width="94" height="89" viewBox="0 0 94 89" fill="none" xmlns="http://www.w3.org/2000/svg">
<g id="Frame" clip-path="url(#clip0_20_27224)">
<g id="Group">
<path id="Vector" fill-rule="evenodd" clip-rule="evenodd" d="M45.8836 9.03378C63.2993 -5.5765 82.6128 -1.67299 90.7625 15.0563C91.8789 17.3984 92.6603 19.8521 93.2185 22.3057C88.3064 6.46861 68.7696 10.0375 68.7696 10.0375H68.8812C66.4252 10.2606 63.6342 11.1528 60.3967 12.7142C53.2518 16.3947 48.3397 22.3057 46.3302 30.3358C41.9762 22.7518 29.4727 12.0451 20.3183 12.0451H20.4299C16.2993 11.9335 3.23752 12.1566 0.223267 26.3207C1.22802 17.0639 5.91685 8.81072 14.9596 3.90345C24.7838 -1.33841 38.5154 0.557585 45.8836 9.03378Z" fill="white"/>
<g id="Group_2">
<path id="Vector_2" fill-rule="evenodd" clip-rule="evenodd" d="M43.7625 89C68.0997 69.9286 81.4964 41.4888 75.3563 22.6404C77.3658 38.589 61.7363 48.6266 48.7862 47.5113C52.5819 61.4524 54.5914 74.2782 43.7625 89Z" fill="#E6E7E8"/>
<path id="Vector_3" fill-rule="evenodd" clip-rule="evenodd" d="M58.4988 30.8936C61.7363 30.8936 64.4156 33.5702 64.4156 36.8046C64.4156 40.1504 61.7363 42.8271 58.4988 42.8271C55.2612 42.8271 52.5819 40.1504 52.5819 36.8046C52.5819 33.5702 55.1496 30.8936 58.4988 30.8936Z" fill="#E6E7E8"/>
</g>
<path id="Vector_4" fill-rule="evenodd" clip-rule="evenodd" d="M44.8788 84.6503C55.2613 67.8095 44.6556 50.7456 46.3301 40.8195C35.5012 41.9348 27.1282 35.9122 23.7791 26.8784C20.2066 51.7493 38.1805 52.6416 44.8788 84.6503ZM35.6128 24.9824C38.627 24.9824 40.9715 27.4361 40.9715 30.4473C40.9715 33.4586 38.5154 35.8007 35.6128 35.8007C32.5985 35.8007 30.1425 33.3471 30.1425 30.4473C30.1425 27.4361 32.5985 24.9824 35.6128 24.9824Z" fill="#E6E7E8"/>
<path id="Vector_5" fill-rule="evenodd" clip-rule="evenodd" d="M43.2043 86.1002C42.6461 76.9549 36.506 64.1291 28.3564 55.0952C30.7008 62.1215 30.2542 68.1441 25.1188 72.4937C30.9241 76.8433 39.5203 75.6165 43.2043 86.1002ZM23.3326 60.8947C25.5654 60.8947 27.3516 62.6792 27.3516 64.9098C27.3516 67.1403 25.5654 68.9248 23.3326 68.9248C21.0998 68.9248 19.3136 67.1403 19.3136 64.9098C19.3136 62.6792 21.0998 60.8947 23.3326 60.8947Z" fill="white"/>
<g id="Group_3">
<path id="Vector_6" fill-rule="evenodd" clip-rule="evenodd" d="M43.7625 89C54.5914 87.9962 80.9382 71.6015 87.6366 55.7644C84.0641 64.3521 66.4252 68.9248 61.848 56.4336C60.285 73.7205 49.1211 84.7619 43.7625 89Z" fill="white"/>
<path id="Vector_7" fill-rule="evenodd" clip-rule="evenodd" d="M79.4869 58.7757C79.4869 61.2293 77.5891 63.1253 75.2447 63.1253C72.9002 63.1253 70.8907 61.2293 70.8907 58.7757C70.8907 56.4336 72.7886 54.5376 75.2447 54.5376C77.5891 54.5376 79.4869 56.4336 79.4869 58.7757Z" fill="white"/>
</g>
<path id="Vector_8" fill-rule="evenodd" clip-rule="evenodd" d="M67.2066 62.7907C64.8622 61.5639 62.9644 59.5564 61.848 56.4336C60.285 73.7206 49.1211 84.7619 43.7625 89C53.475 81.4161 61.513 72.2707 67.2066 62.7907Z" fill="#D1D3D4"/>
<path id="Vector_9" fill-rule="evenodd" clip-rule="evenodd" d="M81.6081 34.5739C80.4917 40.5965 78.4822 46.619 75.8029 52.5301C80.9383 52.8647 86.297 51.3033 90.4276 48.4035C93.6651 39.5927 95.1165 30.6704 93.3302 22.3058C88.4181 6.46867 68.7697 10.0376 68.7697 10.0376C80.6034 8.69925 83.9526 22.0827 81.6081 34.5739Z" fill="url(#paint0_linear_20_27224)"/>
<path id="Vector_10" fill-rule="evenodd" clip-rule="evenodd" d="M18.5321 50.2995C15.1829 44.1654 9.82425 32.901 10.3824 22.9749C11.6105 14.9448 15.5178 12.0451 20.43 12.0451C16.2993 11.9336 3.23755 12.1566 0.2233 26.3208C-0.111617 29.4436 2.20947e-05 32.6779 0.446578 36.0238C2.12116 47.5113 10.829 58.3296 15.1829 63.1253C18.6437 59.7794 19.5368 55.3183 18.5321 50.2995Z" fill="url(#paint1_linear_20_27224)"/>
</g>
</g>
<defs>
<linearGradient id="paint0_linear_20_27224" x1="65.9313" y1="42.799" x2="91.3097" y2="17.3954" gradientUnits="userSpaceOnUse">
<stop stop-color="#E6E7E8"/>
<stop offset="0.4875" stop-color="#E6E7E8"/>
<stop offset="0.9897" stop-color="#BCBEC0"/>
</linearGradient>
<linearGradient id="paint1_linear_20_27224" x1="37.3541" y1="57.1044" x2="8.15975" y2="27.8811" gradientUnits="userSpaceOnUse">
<stop stop-color="#E6E7E8"/>
<stop offset="0.4875" stop-color="#E6E7E8"/>
<stop offset="0.9897" stop-color="#BCBEC0"/>
</linearGradient>
<clipPath id="clip0_20_27224">
<rect width="94" height="89" fill="white"/>
</clipPath>
</defs>
</svg>
