<svg width="118" height="35" viewBox="0 0 118 35" fill="none" xmlns="http://www.w3.org/2000/svg">
<g id="Frame" clip-path="url(#clip0_20_27238)">
<g id="Group">
<g id="Group_2">
<path id="Vector" fill-rule="evenodd" clip-rule="evenodd" d="M18.1398 3.53895C25.0027 -2.18941 32.6517 -0.689839 35.8564 5.87828C36.3099 6.80802 36.6123 7.73775 36.8541 8.69748C34.9495 2.51924 27.1795 3.89885 27.1795 3.89885H27.2098C26.2423 3.98882 25.1539 4.31873 23.8841 4.94855C21.0422 6.35815 19.1073 8.69748 18.3514 11.8466C16.6584 8.84744 11.6699 4.64864 8.07217 4.67863H8.1024C6.46981 4.64864 1.29994 4.70862 0.12085 10.287C0.483648 6.68805 2.32787 3.44898 5.92562 1.52953C9.79546 -0.509891 15.2072 0.209904 18.1398 3.53895Z" fill="#1790C9"/>
<g id="Group_3">
<g id="Group_4">
<path id="Vector_2" fill-rule="evenodd" clip-rule="evenodd" d="M17.2629 34.91C26.9073 27.4421 32.1981 16.2553 29.7492 8.84741C30.5353 15.0856 24.3677 19.0145 19.2583 18.5946C20.77 24.0831 21.556 29.1516 17.2629 34.91Z" fill="#1E2F97"/>
<path id="Vector_3" fill-rule="evenodd" clip-rule="evenodd" d="M23.0979 12.1165C24.398 12.1165 25.4561 13.1662 25.4561 14.4558C25.4561 15.7754 24.398 16.7951 23.0979 16.7951C21.7979 16.7951 20.7397 15.7454 20.7397 14.4558C20.7397 13.1662 21.7979 12.1165 23.0979 12.1165Z" fill="#1E2F97"/>
</g>
</g>
<path id="Vector_4" fill-rule="evenodd" clip-rule="evenodd" d="M17.7468 33.2007C21.8585 26.6026 17.6561 19.8845 18.3212 16.0156C14.0583 16.4355 10.7327 14.0662 9.43267 10.5272C7.98148 20.3044 15.0863 20.6343 17.7468 33.2007ZM14.0583 9.80737C15.2374 9.80737 16.2049 10.7671 16.2049 11.9368C16.2049 13.1064 15.2374 14.0362 14.0583 14.0362C12.849 14.0362 11.9118 13.0764 11.9118 11.9368C11.9118 10.7671 12.849 9.80737 14.0583 9.80737Z" fill="#1E2F97"/>
<path id="Vector_5" fill-rule="evenodd" clip-rule="evenodd" d="M17.0514 33.7703C16.8397 30.1713 14.3909 25.1328 11.1861 21.6238C12.1234 24.413 11.942 26.7523 9.91635 28.4318C12.2443 30.1413 15.6304 29.6315 17.0514 33.7703ZM9.22099 23.9031C10.0977 23.9031 10.8233 24.5929 10.8233 25.4627C10.8233 26.3324 10.0977 27.0522 9.22099 27.0522C8.34422 27.0522 7.64886 26.3324 7.64886 25.4627C7.61863 24.5929 8.34422 23.9031 9.22099 23.9031Z" fill="#1790C9"/>
<g id="Group_5">
<g id="Group_6">
<path id="Vector_6" fill-rule="evenodd" clip-rule="evenodd" d="M17.2629 34.9101C21.556 34.5202 31.9563 28.072 34.5865 21.8938C33.1656 25.2828 26.212 27.0523 24.398 22.1337C23.7933 28.9118 19.4095 33.2606 17.2629 34.9101Z" fill="#1790C9"/>
<path id="Vector_7" fill-rule="evenodd" clip-rule="evenodd" d="M31.412 23.0636C31.412 23.9933 30.6561 24.7731 29.7189 24.7731C28.7817 24.7731 27.9956 24.0233 27.9956 23.0636C27.9956 22.1338 28.7514 21.384 29.7189 21.384C30.6561 21.384 31.412 22.1338 31.412 23.0636Z" fill="#1790C9"/>
</g>
</g>
<path id="Vector_8" fill-rule="evenodd" clip-rule="evenodd" d="M26.5448 24.6231C25.6378 24.1432 24.882 23.3334 24.4285 22.1338C23.8238 28.9119 19.44 33.2606 17.2935 34.9101C21.1331 31.911 24.2773 28.342 26.5448 24.6231Z" fill="#077099"/>
<path id="Vector_9" fill-rule="evenodd" clip-rule="evenodd" d="M32.2286 13.586C31.7751 15.9553 31.0193 18.2946 29.9309 20.6339C31.9867 20.7839 34.0728 20.1241 35.7054 18.9844C37.0054 15.5354 37.5496 12.0264 36.824 8.75733C34.9193 2.5491 27.1494 3.92871 27.1494 3.92871C31.8658 3.38886 33.1658 8.66736 32.2286 13.586Z" fill="url(#paint0_linear_20_27238)"/>
<path id="Vector_10" fill-rule="evenodd" clip-rule="evenodd" d="M7.31635 19.7343C5.98609 17.335 3.86977 12.9262 4.11164 8.99735C4.6256 5.87824 6.13726 4.70858 8.07218 4.70858C6.43959 4.67859 1.26972 4.73857 0.090626 10.317C-0.0303066 11.5466 -7.34888e-05 12.8363 0.181325 14.1259C0.846455 18.6546 4.29304 22.8834 6.01632 24.7728C7.37682 23.4232 7.70938 21.7137 7.31635 19.7343Z" fill="url(#paint1_linear_20_27238)"/>
</g>
<g id="Group_7">
<g id="Group_8">
<path id="Vector_11" d="M61.4638 0.959961V21.4741H57.594V12.5067H47.8891V21.4741H44.0193V0.959961H47.8891V9.77744H57.594V0.959961H61.4638Z" fill="#001540"/>
<path id="Vector_12" d="M77.7898 4.6788C77.6688 4.88874 77.5479 5.00871 77.427 5.09868C77.306 5.18866 77.1246 5.21865 76.9432 5.21865C76.7316 5.21865 76.52 5.15866 76.2781 5.00871C76.0362 4.85875 75.7641 4.70879 75.4316 4.52884C75.099 4.3489 74.7362 4.19894 74.2827 4.04898C73.8595 3.89902 73.3455 3.83904 72.7408 3.83904C72.1966 3.83904 71.7431 3.89902 71.3501 4.01899C70.9571 4.13896 70.6245 4.3189 70.3524 4.55884C70.0803 4.79877 69.8687 5.06869 69.7477 5.3686C69.6268 5.69851 69.5361 6.02842 69.5361 6.4183C69.5361 6.89817 69.6873 7.28806 69.9291 7.61796C70.171 7.94787 70.564 8.21779 71.0175 8.42773C71.471 8.66766 71.985 8.84761 72.5594 9.02756C73.1339 9.20751 73.7083 9.38746 74.313 9.5974C74.9176 9.80734 75.4921 10.0473 76.0665 10.3172C76.6409 10.5871 77.1549 10.917 77.6084 11.3369C78.0619 11.7568 78.4247 12.2366 78.6968 12.8365C78.9689 13.4363 79.0898 14.1561 79.0898 14.9959C79.0898 15.9256 78.9386 16.7953 78.6061 17.6051C78.2735 18.4149 77.82 19.1047 77.2153 19.7045C76.6107 20.3043 75.8548 20.7842 74.9781 21.1141C74.1013 21.444 73.0734 21.624 71.9245 21.624C71.2594 21.624 70.6245 21.564 69.9896 21.444C69.3547 21.324 68.7501 21.1441 68.1454 20.9042C67.571 20.6642 66.9965 20.3943 66.4826 20.0644C65.9686 19.7345 65.5151 19.3746 65.1221 18.9547L66.2407 17.1252C66.3314 17.0053 66.4523 16.8853 66.6035 16.7953C66.7547 16.7054 66.9058 16.6754 67.0872 16.6754C67.3291 16.6754 67.571 16.7653 67.8733 16.9753C68.1454 17.1552 68.478 17.3952 68.871 17.6351C69.264 17.875 69.6873 18.085 70.2012 18.2949C70.7152 18.4749 71.3199 18.5948 72.0455 18.5948C73.1339 18.5948 73.9804 18.3249 74.5851 17.815C75.1897 17.3052 75.492 16.5554 75.492 15.5957C75.492 15.0558 75.3711 14.606 75.099 14.2761C74.8269 13.9462 74.4641 13.6462 74.0106 13.4063C73.5571 13.1664 73.0432 12.9864 72.4687 12.8065C71.8943 12.6565 71.3199 12.4766 70.7152 12.2966C70.1105 12.1167 69.5361 11.8767 68.9617 11.6068C68.3873 11.3369 67.8733 11.007 67.4198 10.5571C66.9663 10.1372 66.6035 9.59739 66.3314 8.96758C66.0593 8.33776 65.9384 7.52799 65.9384 6.59825C65.9384 5.84847 66.0895 5.12867 66.3919 4.40888C66.6942 3.68908 67.1175 3.05926 67.6919 2.51942C68.2663 1.97957 68.9617 1.5297 69.8082 1.1998C70.6547 0.86989 71.6222 0.689941 72.7106 0.689941C73.9199 0.689941 75.0688 0.86989 76.0967 1.25978C77.1246 1.64967 78.0014 2.15952 78.727 2.84932L77.7898 4.6788Z" fill="#001540"/>
<path id="Vector_13" d="M94.176 4.6788C94.0551 4.88874 93.9341 5.00871 93.8132 5.09868C93.6923 5.18866 93.5109 5.21865 93.3295 5.21865C93.1178 5.21865 92.9062 5.15866 92.6643 5.00871C92.4225 4.85875 92.1504 4.70879 91.8178 4.52884C91.4852 4.3489 91.1224 4.19894 90.6689 4.04898C90.2457 3.89902 89.7317 3.83904 89.127 3.83904C88.5829 3.83904 88.1294 3.89902 87.7363 4.01899C87.3433 4.13896 87.0107 4.3189 86.7386 4.55884C86.4665 4.79877 86.2549 5.06869 86.134 5.3686C86.013 5.69851 85.9223 6.02842 85.9223 6.4183C85.9223 6.89817 86.0433 7.28806 86.3154 7.61796C86.5875 7.94787 86.9503 8.21779 87.4038 8.42773C87.8573 8.66766 88.3712 8.84761 88.9457 9.02756C89.5201 9.20751 90.0945 9.38746 90.6992 9.5974C91.3038 9.80734 91.8783 10.0473 92.4527 10.3172C93.0271 10.5871 93.5411 10.917 93.9946 11.3369C94.4481 11.7568 94.8109 12.2366 95.083 12.8365C95.3551 13.4363 95.476 14.1561 95.476 14.9959C95.476 15.9256 95.3249 16.7953 94.9923 17.6051C94.6597 18.4149 94.2062 19.1047 93.6016 19.7045C92.9969 20.3043 92.2411 20.7842 91.3643 21.1141C90.4875 21.444 89.4596 21.624 88.3108 21.624C87.6456 21.624 87.0107 21.564 86.3758 21.444C85.7409 21.324 85.1363 21.1441 84.5316 20.9042C83.9572 20.6642 83.3828 20.3943 82.8688 20.0644C82.3548 19.7345 81.9013 19.3746 81.5083 18.9547L82.6269 17.1252C82.7176 17.0053 82.8386 16.8853 82.9897 16.7953C83.1409 16.7054 83.2921 16.6754 83.4735 16.6754C83.7153 16.6754 83.9572 16.7653 84.2595 16.9753C84.5316 17.1552 84.8642 17.3952 85.2572 17.6351C85.6502 17.875 86.0735 18.085 86.5875 18.2949C87.1014 18.4749 87.7061 18.5948 88.4317 18.5948C89.5201 18.5948 90.3666 18.3249 90.9713 17.815C91.5759 17.3052 91.8783 16.5554 91.8783 15.5957C91.8783 15.0558 91.7573 14.606 91.4852 14.2761C91.2131 13.9462 90.8503 13.6462 90.3968 13.4063C89.9433 13.1664 89.4294 12.9864 88.855 12.8065C88.2805 12.6565 87.7061 12.4766 87.1014 12.2966C86.4968 12.1167 85.9223 11.8767 85.3479 11.6068C84.7735 11.3369 84.2595 11.007 83.806 10.5571C83.3525 10.1372 82.9897 9.59739 82.7176 8.96758C82.4455 8.33776 82.3246 7.52799 82.3246 6.59825C82.3246 5.84847 82.4758 5.12867 82.7781 4.40888C83.0804 3.68908 83.5037 3.05926 84.0781 2.51942C84.6525 1.97957 85.3479 1.5297 86.1944 1.1998C87.041 0.86989 88.0084 0.689941 89.0666 0.689941C90.2759 0.689941 91.4248 0.86989 92.4527 1.25978C93.4806 1.64967 94.3574 2.15952 95.083 2.84932L94.176 4.6788Z" fill="#001540"/>
<path id="Vector_14" d="M103.397 9.5675H104.304C104.667 9.5675 104.969 9.50752 105.211 9.41754C105.453 9.32757 105.665 9.14762 105.816 8.93768L111.53 1.76973C111.772 1.46982 112.014 1.25988 112.286 1.13991C112.558 1.01994 112.89 0.959961 113.284 0.959961H116.609L109.656 9.47753C109.232 9.98738 108.809 10.3773 108.386 10.5872C108.688 10.7072 108.99 10.8571 109.232 11.0671C109.474 11.277 109.716 11.5469 109.958 11.8768L117.123 21.4741H113.737C113.284 21.4741 112.951 21.4141 112.709 21.2942C112.497 21.1742 112.286 20.9942 112.135 20.7243L106.3 13.1665C106.118 12.8966 105.907 12.7466 105.665 12.6266C105.423 12.5367 105.09 12.4767 104.637 12.4767H103.428V21.5041H99.5879V0.959961H103.397V9.5675Z" fill="#001540"/>
</g>
</g>
<g id="Group_9">
<g id="Group_10">
<path id="Vector_15" d="M50.6104 26.8721V34.9098H49.522V31.2508H45.1382V34.9098H44.0498V26.8721H45.1382V30.471H49.522V26.8721H50.6104Z" fill="#001540"/>
<path id="Vector_16" d="M53.0897 27.1721C52.999 27.262 52.9083 27.322 52.8176 27.322C52.7269 27.322 52.6059 27.292 52.485 27.1721L51.1245 25.9724H52.1222C52.2431 25.9724 52.3338 26.0024 52.3943 26.0324C52.4548 26.0624 52.5152 26.1224 52.5757 26.2123L53.2408 26.9921L53.0897 27.1721ZM54.5711 29.1215C54.9944 29.1215 55.3571 29.1815 55.6897 29.3315C56.0223 29.4814 56.3246 29.6614 56.5362 29.9313C56.7781 30.1712 56.9595 30.5011 57.0804 30.861C57.2014 31.2209 57.2618 31.6108 57.2618 32.0607C57.2618 32.5105 57.2014 32.9004 57.0804 33.2603C56.9595 33.6202 56.7781 33.9201 56.5362 34.1901C56.2944 34.43 56.0223 34.6399 55.6897 34.7899C55.3571 34.9399 54.9641 34.9998 54.5711 34.9998C54.1478 34.9998 53.7548 34.9399 53.4222 34.7899C53.0897 34.6399 52.7873 34.46 52.5455 34.1901C52.3036 33.9501 52.1222 33.6202 52.0013 33.2603C51.8803 32.9004 51.8199 32.5105 51.8199 32.0607C51.8199 31.6108 51.8803 31.2209 52.0013 30.861C52.1222 30.5011 52.3036 30.2012 52.5455 29.9313C52.7873 29.6914 53.0594 29.4814 53.4222 29.3315C53.7548 29.2115 54.1478 29.1215 54.5711 29.1215ZM56.2944 28.3417H55.6292C55.5385 28.3417 55.4781 28.3117 55.4176 28.2518L54.692 27.472C54.6618 27.442 54.6316 27.412 54.6013 27.352C54.5711 27.382 54.5711 27.382 54.5409 27.412C54.5106 27.442 54.5106 27.442 54.5106 27.472L53.785 28.2518C53.7548 28.2818 53.7246 28.2818 53.6943 28.3117C53.6641 28.3417 53.6036 28.3417 53.5734 28.3417H52.878L54.1478 26.8722H55.0851L56.2944 28.3417ZM54.5711 34.2201C55.1455 34.2201 55.5688 34.0401 55.8409 33.6502C56.113 33.2603 56.2641 32.7505 56.2641 32.0907C56.2641 31.4009 56.113 30.891 55.8409 30.5011C55.5688 30.1112 55.1455 29.9313 54.5711 29.9313C54.299 29.9313 54.0269 29.9913 53.8153 30.0812C53.6036 30.1712 53.4222 30.3212 53.2711 30.5011C53.1199 30.6811 53.0292 30.921 52.9687 31.1909C52.9083 31.4608 52.878 31.7608 52.878 32.0907C52.878 32.7505 53.0292 33.2903 53.3013 33.6502C53.5432 34.0101 53.9967 34.2201 54.5711 34.2201Z" fill="#001540"/>
<path id="Vector_17" d="M64.548 30.1713C64.5177 30.2613 64.427 30.2912 64.3363 30.2912C64.2759 30.2912 64.2154 30.2613 64.1549 30.2313C64.0945 30.2013 64.0038 30.1413 63.8828 30.0813C63.7921 30.0213 63.641 29.9913 63.52 29.9314C63.3689 29.9014 63.2177 29.8714 63.0061 29.8714C62.8247 29.8714 62.6735 29.9014 62.5526 29.9314C62.4316 29.9613 62.3107 30.0213 62.1898 30.1113C62.0991 30.1713 62.0084 30.2613 61.9781 30.3812C61.9177 30.4712 61.8874 30.5912 61.8874 30.7111C61.8874 30.8611 61.9177 30.9811 62.0084 31.071C62.0991 31.161 62.22 31.251 62.3409 31.311C62.4619 31.3709 62.6433 31.4309 62.8247 31.4909C63.0061 31.5509 63.1875 31.6109 63.3689 31.6709C63.5503 31.7308 63.7317 31.7908 63.9131 31.8808C64.0945 31.9408 64.2456 32.0607 64.3968 32.1507C64.548 32.2707 64.6387 32.3906 64.7294 32.5706C64.8201 32.7206 64.8503 32.9305 64.8503 33.1704C64.8503 33.4404 64.7898 33.6803 64.6991 33.8902C64.6084 34.1002 64.4573 34.3101 64.2759 34.4601C64.0945 34.61 63.8526 34.76 63.6107 34.8499C63.3386 34.9399 63.0363 34.9999 62.6735 34.9999C62.2805 34.9999 61.9177 34.9399 61.5851 34.82C61.2525 34.7 60.9804 34.52 60.7688 34.3101L61.0107 33.9202C61.0409 33.8602 61.0711 33.8302 61.1316 33.8002C61.1618 33.7703 61.2223 33.7703 61.2828 33.7703C61.3432 33.7703 61.4339 33.8002 61.4944 33.8602C61.5549 33.9202 61.6758 33.9802 61.7665 34.0402C61.8874 34.1002 62.0084 34.1601 62.1595 34.2201C62.3107 34.2801 62.4921 34.3101 62.734 34.3101C62.9154 34.3101 63.0968 34.2801 63.2479 34.2201C63.3991 34.1601 63.52 34.1002 63.6107 34.0102C63.7014 33.9202 63.7921 33.8302 63.8224 33.7103C63.8828 33.5903 63.8828 33.4703 63.8828 33.3504C63.8828 33.2004 63.8526 33.0505 63.7619 32.9605C63.6712 32.8705 63.5503 32.7805 63.4293 32.6906C63.2782 32.6306 63.127 32.5406 62.9456 32.5106C62.7642 32.4506 62.5828 32.3907 62.4014 32.3307C62.22 32.2707 62.0386 32.2107 61.8572 32.1207C61.6758 32.0308 61.5246 31.9408 61.3735 31.8208C61.2223 31.7008 61.1316 31.5509 61.0409 31.4009C60.9502 31.221 60.92 31.011 60.92 30.7711C60.92 30.5612 60.9502 30.3512 61.0409 30.1413C61.1316 29.9314 61.2525 29.7514 61.4339 29.6014C61.6153 29.4515 61.827 29.3315 62.0688 29.2415C62.3107 29.1516 62.613 29.1216 62.9456 29.1216C63.3084 29.1216 63.6712 29.1816 63.9735 29.3015C64.2759 29.4215 64.5177 29.5715 64.7596 29.7814L64.548 30.1713Z" fill="#001540"/>
<path id="Vector_18" d="M72.1667 28.3718C72.1969 28.4318 72.2271 28.5218 72.2271 28.6417C72.2271 28.7317 72.2574 28.8517 72.2574 28.9417C72.2574 29.3615 72.1364 29.7214 71.8946 30.0214C71.6527 30.3213 71.2899 30.5012 70.8364 30.5912C71.048 31.0111 71.1387 31.5209 71.1387 32.0908C71.1387 32.5406 71.0783 32.9305 70.9573 33.2904C70.8364 33.6503 70.655 33.9502 70.4131 34.2202C70.1713 34.4601 69.8992 34.67 69.5666 34.82C69.2341 34.9699 68.841 35.0299 68.448 35.0299C68.0247 35.0299 67.6317 34.9699 67.2991 34.82C66.9666 34.67 66.6642 34.4901 66.4224 34.2202C66.1805 33.9802 65.9991 33.6503 65.8782 33.2904C65.7572 32.9305 65.6968 32.5406 65.6968 32.0908C65.6968 31.6409 65.7572 31.251 65.8782 30.8911C65.9991 30.5312 66.1805 30.2313 66.4224 29.9614C66.6642 29.7214 66.9363 29.5115 67.2991 29.3615C67.6317 29.2116 68.0247 29.1516 68.448 29.1516C68.9317 29.1516 69.355 29.2416 69.7178 29.4215C70.0806 29.6015 70.3829 29.8414 70.6248 30.1713C70.8666 30.1413 71.048 30.0513 71.1992 29.9314C71.3201 29.8114 71.4108 29.6615 71.4108 29.4815C71.4108 29.4215 71.4108 29.3615 71.3806 29.3316C71.3504 29.3016 71.3201 29.2416 71.2899 29.2116C71.2597 29.1816 71.2294 29.1216 71.1992 29.0616C71.169 29.0016 71.169 28.9417 71.169 28.8517C71.169 28.7017 71.1992 28.6118 71.2899 28.5218C71.3806 28.4318 71.5318 28.4018 71.7132 28.4018H72.1667V28.3718ZM68.4178 34.2202C68.9922 34.2202 69.4155 34.0402 69.6876 33.6503C69.9597 33.2604 70.1108 32.7506 70.1108 32.0908C70.1108 31.401 69.9597 30.8911 69.6876 30.5012C69.4155 30.1113 68.9922 29.9314 68.4178 29.9314C68.1457 29.9314 67.8736 29.9914 67.6619 30.0813C67.4503 30.1713 67.2689 30.3213 67.1177 30.5012C66.9666 30.6812 66.8759 30.9211 66.8154 31.191C66.7549 31.4609 66.7247 31.7609 66.7247 32.0908C66.7247 32.7506 66.8759 33.2904 67.148 33.6503C67.4201 34.0102 67.8433 34.2202 68.4178 34.2202Z" fill="#001540"/>
<path id="Vector_19" d="M78.6063 30.1713C78.5761 30.2613 78.4854 30.2912 78.3947 30.2912C78.3342 30.2912 78.2737 30.2613 78.2133 30.2313C78.1528 30.2013 78.0621 30.1413 77.9412 30.0813C77.8505 30.0213 77.6993 29.9913 77.5784 29.9314C77.4272 29.9014 77.276 29.8714 77.0644 29.8714C76.883 29.8714 76.7318 29.9014 76.6109 29.9314C76.49 29.9613 76.369 30.0213 76.2481 30.1113C76.1574 30.1713 76.0667 30.2613 76.0365 30.3812C75.976 30.4712 75.9458 30.5912 75.9458 30.7111C75.9458 30.8611 75.976 30.9811 76.0667 31.071C76.1574 31.161 76.2783 31.251 76.3993 31.311C76.5504 31.3709 76.7016 31.4309 76.883 31.4909C77.0644 31.5509 77.2458 31.6109 77.4272 31.6709C77.6086 31.7308 77.79 31.7908 77.9714 31.8808C78.1528 31.9408 78.304 32.0607 78.4551 32.1507C78.6063 32.2707 78.697 32.3906 78.7877 32.5706C78.8784 32.7206 78.9086 32.9305 78.9086 33.1704C78.9086 33.4404 78.8482 33.6803 78.7575 33.8902C78.6668 34.1002 78.5156 34.3101 78.3342 34.4601C78.1528 34.61 77.9109 34.76 77.6691 34.8499C77.397 34.9399 77.0946 34.9999 76.7318 34.9999C76.3388 34.9999 75.976 34.9399 75.6434 34.82C75.3109 34.7 75.0388 34.52 74.8271 34.3101L75.069 33.9202C75.0992 33.8602 75.1295 33.8302 75.1899 33.8002C75.2202 33.7703 75.2806 33.7703 75.3411 33.7703C75.4016 33.7703 75.4923 33.8002 75.5527 33.8602C75.6132 33.9202 75.7341 33.9802 75.8248 34.0402C75.9458 34.1002 76.0667 34.1601 76.2179 34.2201C76.369 34.2801 76.5504 34.3101 76.7923 34.3101C76.9737 34.3101 77.1551 34.2801 77.3063 34.2201C77.4574 34.1601 77.5784 34.1002 77.6691 34.0102C77.7598 33.9202 77.8505 33.8302 77.8807 33.7103C77.9412 33.5903 77.9412 33.4703 77.9412 33.3504C77.9412 33.2004 77.9109 33.0505 77.8202 32.9605C77.7295 32.8705 77.6086 32.7805 77.4877 32.6906C77.3365 32.6306 77.1853 32.5406 77.0039 32.5106C76.8225 32.4506 76.6411 32.3907 76.4597 32.3307C76.2783 32.2707 76.0969 32.2107 75.9155 32.1207C75.7341 32.0308 75.583 31.9408 75.4318 31.8208C75.2806 31.7008 75.1899 31.5509 75.0992 31.4009C75.0085 31.221 74.9783 31.011 74.9783 30.7711C74.9783 30.5612 75.0085 30.3512 75.0992 30.1413C75.1899 29.9314 75.3109 29.7514 75.4923 29.6014C75.6737 29.4515 75.8853 29.3315 76.1272 29.2415C76.369 29.1516 76.6714 29.1216 77.0039 29.1216C77.3667 29.1216 77.7295 29.1816 78.0319 29.3015C78.3342 29.4215 78.5761 29.5715 78.8179 29.7814L78.6063 30.1713Z" fill="#001540"/>
<path id="Vector_20" d="M86.4972 28.3716C86.5274 28.4316 86.5274 28.5215 86.5576 28.6415C86.5576 28.7315 86.5879 28.8514 86.5879 28.9414C86.5879 29.1814 86.5576 29.3913 86.4669 29.6012C86.3762 29.8112 86.2855 29.9611 86.1041 30.1111C85.953 30.261 85.7716 30.381 85.5297 30.471C85.3181 30.561 85.046 30.6209 84.7436 30.6209V34.9097H84.139C83.9878 34.9097 83.8971 34.8497 83.8669 34.6998L83.7762 34.0999C83.5343 34.3699 83.2622 34.5798 82.9296 34.7598C82.6273 34.9397 82.2645 34.9997 81.8715 34.9997C81.5691 34.9997 81.2971 34.9397 81.0552 34.8497C80.8133 34.7598 80.6017 34.6098 80.4505 34.3999C80.2994 34.2199 80.1784 33.98 80.0877 33.7101C79.997 33.4401 79.9668 33.1402 79.9668 32.8403V29.2113H80.9645V32.8403C80.9645 33.2602 81.0552 33.5901 81.2668 33.83C81.4785 34.07 81.7808 34.1899 82.1738 34.1899C82.4761 34.1899 82.7482 34.1299 83.0203 33.98C83.2924 33.83 83.5041 33.6501 83.7459 33.4101V29.2113H84.7436V30.1411C85.046 30.1111 85.2576 30.0211 85.4088 29.9011C85.5599 29.7812 85.6506 29.6012 85.6506 29.4213C85.6506 29.3613 85.6506 29.3013 85.6204 29.2713C85.5902 29.2413 85.5599 29.1813 85.5297 29.1514C85.4995 29.1214 85.4692 29.0614 85.439 29.0014C85.4088 28.9414 85.4088 28.8814 85.4088 28.7915C85.4088 28.6415 85.439 28.5515 85.5297 28.4616C85.6204 28.3716 85.7716 28.3416 85.953 28.3416H86.4972V28.3716ZM83.9878 26.6321L82.6575 28.0717C82.5971 28.1317 82.5668 28.1616 82.5064 28.1916C82.4459 28.2216 82.3854 28.2216 82.325 28.2216H81.7203L82.5668 26.872C82.6273 26.782 82.6878 26.7221 82.7482 26.6921C82.8087 26.6621 82.8994 26.6321 83.0203 26.6321H83.9878Z" fill="#001540"/>
<path id="Vector_21" d="M91.0624 30.2311C91.0321 30.2611 91.0019 30.2911 90.9717 30.3211C90.9414 30.3511 90.9112 30.3511 90.8507 30.3511C90.7903 30.3511 90.7298 30.3211 90.6693 30.2911C90.6089 30.2311 90.5182 30.2011 90.4275 30.1411C90.3368 30.0811 90.2158 30.0212 90.0647 29.9912C89.9135 29.9312 89.7321 29.9312 89.5205 29.9312C89.2484 29.9312 88.9763 29.9912 88.7646 30.0811C88.553 30.1711 88.3716 30.3211 88.2204 30.501C88.0693 30.681 87.9786 30.9209 87.8879 31.1908C87.8274 31.4607 87.7669 31.7607 87.7669 32.0906C87.7669 32.4205 87.7972 32.7504 87.8879 33.0203C87.9786 33.2902 88.0693 33.5002 88.2204 33.6801C88.3716 33.8601 88.553 34.01 88.7344 34.1C88.946 34.19 89.1577 34.2499 89.4298 34.2499C89.6716 34.2499 89.8833 34.22 90.0344 34.16C90.1856 34.1 90.3368 34.04 90.4275 33.98C90.5182 33.92 90.6089 33.8301 90.6996 33.8001C90.76 33.7401 90.8507 33.7101 90.9112 33.7101C91.0019 33.7101 91.0624 33.7401 91.0926 33.8001L91.3647 34.16C91.2438 34.3099 91.0926 34.4299 90.9414 34.5499C90.7903 34.6698 90.6089 34.7598 90.4275 34.8198C90.2461 34.8798 90.0647 34.9398 89.853 34.9697C89.6414 34.9997 89.46 35.0297 89.2484 35.0297C88.8856 35.0297 88.553 34.9697 88.2507 34.8198C87.9483 34.6998 87.6762 34.4899 87.4646 34.2499C87.253 34.01 87.0716 33.7101 86.9204 33.3202C86.7995 32.9603 86.739 32.5404 86.739 32.0906C86.739 31.6707 86.7995 31.2808 86.9204 30.9209C87.0413 30.561 87.2227 30.2611 87.4344 29.9912C87.6762 29.7212 87.9483 29.5413 88.2809 29.3913C88.6135 29.2414 89.0065 29.1814 89.4298 29.1814C89.8228 29.1814 90.1856 29.2414 90.4879 29.3613C90.7903 29.4813 91.0624 29.6613 91.3042 29.9012L91.0624 30.2311Z" fill="#001540"/>
<path id="Vector_22" d="M96.1415 26.6321V31.4907H96.4136C96.4741 31.4907 96.5648 31.4907 96.595 31.4607C96.6555 31.4307 96.6857 31.4007 96.7461 31.3407L98.5601 29.4213C98.6206 29.3613 98.6811 29.3013 98.7415 29.2713C98.802 29.2413 98.8927 29.2113 98.9834 29.2113H99.8904L97.7741 31.4307C97.6834 31.5507 97.5624 31.6706 97.4415 31.7306C97.502 31.7606 97.5624 31.8206 97.6229 31.8806C97.6834 31.9406 97.7438 32.0005 97.7741 32.0905L100.011 34.9097H99.1043C99.0136 34.9097 98.9532 34.9097 98.8927 34.8797C98.8322 34.8497 98.7718 34.7898 98.7415 34.7298L96.8671 32.3904C96.8066 32.3005 96.7461 32.2705 96.6857 32.2405C96.6252 32.2105 96.5345 32.2105 96.4438 32.2105H96.1415V34.9397H95.1438V26.6321H96.1415Z" fill="#001540"/>
<path id="Vector_23" d="M101.765 29.9911C102.007 29.7212 102.279 29.5412 102.581 29.3613C102.884 29.2113 103.216 29.1214 103.609 29.1214C103.912 29.1214 104.184 29.1814 104.425 29.2713C104.667 29.3613 104.879 29.5113 105.03 29.7212C105.181 29.9011 105.302 30.1411 105.393 30.411C105.484 30.6809 105.514 30.9808 105.514 31.2808V34.9097H104.516V31.2808C104.516 30.8609 104.425 30.531 104.214 30.291C104.002 30.0511 103.73 29.9311 103.307 29.9311C103.005 29.9311 102.732 29.9911 102.46 30.1411C102.188 30.291 101.977 30.471 101.735 30.7109V34.9097H100.737V26.6321H101.735V29.9911H101.765Z" fill="#001540"/>
<path id="Vector_24" d="M109.384 29.1217C109.807 29.1217 110.17 29.1816 110.502 29.3316C110.835 29.4815 111.137 29.6615 111.349 29.9314C111.591 30.1714 111.772 30.5013 111.893 30.8612C112.014 31.2211 112.074 31.6109 112.074 32.0608C112.074 32.5107 112.014 32.9006 111.893 33.2605C111.772 33.6204 111.591 33.9203 111.349 34.1902C111.107 34.4301 110.835 34.6401 110.502 34.79C110.17 34.94 109.777 35 109.384 35C108.96 35 108.567 34.94 108.235 34.79C107.902 34.6401 107.6 34.4601 107.358 34.1902C107.116 33.9503 106.935 33.6204 106.814 33.2605C106.693 32.9006 106.632 32.5107 106.632 32.0608C106.632 31.6109 106.693 31.2211 106.814 30.8612C106.935 30.5013 107.116 30.2013 107.358 29.9314C107.6 29.6915 107.872 29.4815 108.235 29.3316C108.567 29.2116 108.96 29.1217 109.384 29.1217ZM109.384 34.2202C109.958 34.2202 110.381 34.0402 110.653 33.6504C110.925 33.2605 111.077 32.7506 111.077 32.0908C111.077 31.401 110.925 30.8911 110.653 30.5013C110.381 30.1114 109.958 29.9314 109.384 29.9314C109.111 29.9314 108.839 29.9914 108.628 30.0814C108.416 30.1714 108.235 30.3213 108.084 30.5013C107.932 30.6812 107.842 30.9211 107.781 31.1911C107.721 31.461 107.69 31.7609 107.69 32.0908C107.69 32.7506 107.842 33.2905 108.114 33.6504C108.386 34.0103 108.809 34.2202 109.384 34.2202ZM108.325 26.9623C108.446 26.8723 108.597 26.8123 108.749 26.7523C108.93 26.6923 109.111 26.6624 109.323 26.6624C109.504 26.6624 109.656 26.6923 109.777 26.7223C109.898 26.7523 110.018 26.8123 110.079 26.8723C110.17 26.9323 110.23 27.0223 110.26 27.0822C110.291 27.1722 110.321 27.2622 110.321 27.3522C110.321 27.5321 110.26 27.6821 110.139 27.832C110.018 27.952 109.867 28.072 109.656 28.1319L109.565 28.5818H109.081V27.892C109.293 27.862 109.414 27.802 109.504 27.742C109.565 27.6821 109.625 27.5921 109.625 27.5021C109.625 27.4121 109.595 27.3522 109.535 27.2622C109.474 27.1722 109.353 27.1722 109.202 27.1722C109.142 27.1722 109.051 27.1722 108.991 27.2022C108.93 27.2322 108.87 27.2322 108.839 27.2622C108.809 27.2922 108.749 27.2922 108.718 27.3222C108.688 27.3522 108.658 27.3522 108.628 27.3522C108.597 27.3522 108.567 27.3522 108.567 27.3222C108.537 27.2922 108.537 27.2922 108.507 27.2622L108.325 26.9623Z" fill="#001540"/>
<path id="Vector_25" d="M117.909 34.1002C117.788 34.2501 117.637 34.3701 117.456 34.4901C117.274 34.61 117.093 34.7 116.912 34.76C116.7 34.82 116.519 34.8799 116.307 34.9099C116.095 34.9399 115.884 34.9699 115.672 34.9699C115.279 34.9699 114.916 34.9099 114.584 34.76C114.251 34.64 113.949 34.4301 113.707 34.1901C113.465 33.9202 113.284 33.6203 113.133 33.2304C113.012 32.8405 112.921 32.4206 112.921 31.9408C112.921 31.5509 112.981 31.161 113.102 30.8311C113.223 30.5012 113.405 30.2013 113.616 29.9314C113.858 29.6914 114.13 29.4815 114.463 29.3315C114.795 29.1816 115.158 29.1216 115.581 29.1216C115.914 29.1216 116.247 29.1816 116.549 29.3015C116.851 29.4215 117.093 29.5715 117.305 29.7814C117.516 29.9913 117.698 30.2613 117.819 30.5912C117.94 30.9211 118 31.281 118 31.6709C118 31.8208 117.97 31.9408 117.94 31.9708C117.909 32.0308 117.849 32.0607 117.758 32.0607H113.919C113.919 32.4206 113.979 32.7206 114.07 32.9905C114.16 33.2604 114.281 33.4703 114.433 33.6503C114.584 33.8302 114.765 33.9502 115.007 34.0402C115.219 34.1302 115.46 34.1601 115.733 34.1601C115.974 34.1601 116.216 34.1302 116.398 34.0702C116.579 34.0102 116.73 33.9502 116.881 33.8902C117.002 33.8302 117.123 33.7703 117.214 33.7103C117.305 33.6503 117.365 33.6203 117.456 33.6203C117.547 33.6203 117.607 33.6503 117.637 33.7103L117.909 34.1002ZM117.093 31.4609C117.093 31.221 117.063 31.011 117.002 30.8311C116.942 30.6511 116.851 30.4712 116.7 30.3212C116.579 30.1713 116.428 30.0813 116.247 29.9913C116.065 29.9014 115.854 29.8714 115.642 29.8714C115.158 29.8714 114.765 30.0213 114.493 30.2912C114.221 30.5612 114.04 30.9511 113.979 31.4609H117.093Z" fill="#001540"/>
</g>
</g>
</g>
</g>
<defs>
<linearGradient id="paint0_linear_20_27238" x1="27.1569" y1="12.2137" x2="37.1387" y2="12.2137" gradientUnits="userSpaceOnUse">
<stop stop-color="#1790C9"/>
<stop offset="1" stop-color="#0D57A8"/>
</linearGradient>
<linearGradient id="paint1_linear_20_27238" x1="-7.3489e-05" y1="14.7365" x2="8.0613" y2="14.7365" gradientUnits="userSpaceOnUse">
<stop stop-color="#1790C9"/>
<stop offset="1" stop-color="#0D57A8"/>
</linearGradient>
<clipPath id="clip0_20_27238">
<rect width="118" height="35" fill="white"/>
</clipPath>
</defs>
</svg>
