<svg width="15" height="18" viewBox="0 0 15 18" fill="none" xmlns="http://www.w3.org/2000/svg">
<rect width="15" height="18" fill="#C0C0C0"/>
<g id="Pop-up t&#225;&#186;&#163;i l&#195;&#170;n th&#195;&#160;nh c&#195;&#180;ng">
<g id="Rectangle" filter="url(#filter0_dd_0_1)">
<rect x="-47.5" y="-263" width="760" height="398" rx="4" fill="white"/>
</g>
<g id="Frame 40601">
<rect x="-22.5" y="-9" width="143" height="36" rx="18" fill="#F8F8F8" fill-opacity="0.82"/>
<rect x="-22" y="-8.5" width="142" height="35" rx="17.5" stroke="#3C3C43" stroke-opacity="0.3"/>
<g id="Frame 40600">
<g id="Iconly/Light/Paper Download">
<g id="Paper Download">
<path id="Stroke 1" fill-rule="evenodd" clip-rule="evenodd" d="M9.7813 1.30151H4.23797C2.52214 1.30151 1.04297 2.69235 1.04297 4.40901V13.3565C1.04297 15.1698 2.42464 16.5957 4.23797 16.5957H10.8946C12.6113 16.5957 14.003 15.0732 14.003 13.3565V5.69818L9.7813 1.30151Z" stroke="#252423" stroke-width="1.2" stroke-linecap="round" stroke-linejoin="round"/>
<path id="Stroke 3" d="M9.5625 1.29175V3.71591C9.5625 4.89925 10.52 5.85925 11.7033 5.86175C12.8 5.86425 13.9225 5.86508 13.9983 5.86008" stroke="#252423" stroke-width="1.2" stroke-linecap="round" stroke-linejoin="round"/>
<path id="Stroke 5" d="M7.20182 12.3447V6.86719" stroke="#252423" stroke-width="1.2" stroke-linecap="round" stroke-linejoin="round"/>
<path id="Stroke 7" d="M4.83594 9.96948L7.20094 12.3453L9.56677 9.96948" stroke="#252423" stroke-width="1.2" stroke-linecap="round" stroke-linejoin="round"/>
</g>
</g>
</g>
</g>
</g>
<g id="Pop-up t&#225;&#186;&#163;i l&#195;&#170;n th&#195;&#160;nh c&#195;&#180;ng_2">
<g id="Rectangle_2" filter="url(#filter1_dd_0_1)">
<rect x="-47.5" y="-263" width="760" height="398" rx="4" fill="white"/>
</g>
<g id="Frame 40601_2">
<rect x="-22.5" y="-9" width="143" height="36" rx="18" fill="#F8F8F8" fill-opacity="0.82"/>
<rect x="-22" y="-8.5" width="142" height="35" rx="17.5" stroke="#3C3C43" stroke-opacity="0.3"/>
<g id="Frame 40600_2">
<g id="Iconly/Light/Paper Download_2">
<g id="Paper Download_2">
<path id="Stroke 1_2" fill-rule="evenodd" clip-rule="evenodd" d="M9.7813 1.30151H4.23797C2.52214 1.30151 1.04297 2.69235 1.04297 4.40901V13.3565C1.04297 15.1698 2.42464 16.5957 4.23797 16.5957H10.8946C12.6113 16.5957 14.003 15.0732 14.003 13.3565V5.69818L9.7813 1.30151Z" stroke="#252423" stroke-width="1.2" stroke-linecap="round" stroke-linejoin="round"/>
<path id="Stroke 3_2" d="M9.5625 1.29175V3.71591C9.5625 4.89925 10.52 5.85925 11.7033 5.86175C12.8 5.86425 13.9225 5.86508 13.9983 5.86008" stroke="#252423" stroke-width="1.2" stroke-linecap="round" stroke-linejoin="round"/>
<path id="Stroke 5_2" d="M7.20182 12.3447V6.86719" stroke="#252423" stroke-width="1.2" stroke-linecap="round" stroke-linejoin="round"/>
<path id="Stroke 7_2" d="M4.83594 9.96948L7.20094 12.3453L9.56677 9.96948" stroke="#252423" stroke-width="1.2" stroke-linecap="round" stroke-linejoin="round"/>
</g>
</g>
</g>
</g>
</g>
<defs>
<filter id="filter0_dd_0_1" x="-76.3" y="-279" width="817.6" height="455.6" filterUnits="userSpaceOnUse" color-interpolation-filters="sRGB">
<feFlood flood-opacity="0" result="BackgroundImageFix"/>
<feColorMatrix in="SourceAlpha" type="matrix" values="0 0 0 0 0 0 0 0 0 0 0 0 0 0 0 0 0 0 127 0" result="hardAlpha"/>
<feOffset dy="12.8"/>
<feGaussianBlur stdDeviation="14.4"/>
<feColorMatrix type="matrix" values="0 0 0 0 0 0 0 0 0 0 0 0 0 0 0 0 0 0 0.22 0"/>
<feBlend mode="normal" in2="BackgroundImageFix" result="effect1_dropShadow_0_1"/>
<feColorMatrix in="SourceAlpha" type="matrix" values="0 0 0 0 0 0 0 0 0 0 0 0 0 0 0 0 0 0 127 0" result="hardAlpha"/>
<feOffset dy="2.4"/>
<feGaussianBlur stdDeviation="3.7"/>
<feColorMatrix type="matrix" values="0 0 0 0 0 0 0 0 0 0 0 0 0 0 0 0 0 0 0.18 0"/>
<feBlend mode="normal" in2="effect1_dropShadow_0_1" result="effect2_dropShadow_0_1"/>
<feBlend mode="normal" in="SourceGraphic" in2="effect2_dropShadow_0_1" result="shape"/>
</filter>
<filter id="filter1_dd_0_1" x="-76.3" y="-279" width="817.6" height="455.6" filterUnits="userSpaceOnUse" color-interpolation-filters="sRGB">
<feFlood flood-opacity="0" result="BackgroundImageFix"/>
<feColorMatrix in="SourceAlpha" type="matrix" values="0 0 0 0 0 0 0 0 0 0 0 0 0 0 0 0 0 0 127 0" result="hardAlpha"/>
<feOffset dy="12.8"/>
<feGaussianBlur stdDeviation="14.4"/>
<feColorMatrix type="matrix" values="0 0 0 0 0 0 0 0 0 0 0 0 0 0 0 0 0 0 0.22 0"/>
<feBlend mode="normal" in2="BackgroundImageFix" result="effect1_dropShadow_0_1"/>
<feColorMatrix in="SourceAlpha" type="matrix" values="0 0 0 0 0 0 0 0 0 0 0 0 0 0 0 0 0 0 127 0" result="hardAlpha"/>
<feOffset dy="2.4"/>
<feGaussianBlur stdDeviation="3.7"/>
<feColorMatrix type="matrix" values="0 0 0 0 0 0 0 0 0 0 0 0 0 0 0 0 0 0 0.18 0"/>
<feBlend mode="normal" in2="effect1_dropShadow_0_1" result="effect2_dropShadow_0_1"/>
<feBlend mode="normal" in="SourceGraphic" in2="effect2_dropShadow_0_1" result="shape"/>
</filter>
</defs>
</svg>
