<svg width="20" height="20" viewBox="0 0 20 20" fill="none" xmlns="http://www.w3.org/2000/svg">
<g id="PrinterOutlined">
<path id="Vector" d="M16.875 8.30441H15.9821C15.8839 8.30441 15.8036 8.38477 15.8036 8.48298V9.37584C15.8036 9.47405 15.8839 9.55441 15.9821 9.55441H16.875C16.9732 9.55441 17.0536 9.47405 17.0536 9.37584V8.48298C17.0536 8.38477 16.9732 8.30441 16.875 8.30441ZM17.5893 5.98298H14.9107V1.25084C14.9107 1.15262 14.8304 1.07227 14.7321 1.07227H5.26786C5.16964 1.07227 5.08929 1.15262 5.08929 1.25084V5.98298H2.41071C1.42411 5.98298 0.625 6.78209 0.625 7.76869V15.0901C0.625 15.4852 0.944196 15.8044 1.33929 15.8044H5.08929V18.7508C5.08929 18.8491 5.16964 18.9294 5.26786 18.9294H14.7321C14.8304 18.9294 14.9107 18.8491 14.9107 18.7508V15.8044H18.6607C19.0558 15.8044 19.375 15.4852 19.375 15.0901V7.76869C19.375 6.78209 18.5759 5.98298 17.5893 5.98298ZM6.60714 2.59012H13.3929V5.98298H6.60714V2.59012ZM13.3929 17.4116H6.60714V11.2508H13.3929V17.4116ZM17.8571 14.2866H14.9107V9.73298H5.08929V14.2866H2.14286V7.76869C2.14286 7.62137 2.26339 7.50084 2.41071 7.50084H17.5893C17.7366 7.50084 17.8571 7.62137 17.8571 7.76869V14.2866Z" fill="black"/>
</g>
</svg>
