<svg width="20" height="20" viewBox="0 0 20 20" fill="none" xmlns="http://www.w3.org/2000/svg">
<path d="M7.63411 9.05866C7.55078 9.05033 7.45078 9.05033 7.35911 9.05866C5.37578 8.99199 3.80078 7.36699 3.80078 5.36699C3.80078 3.32533 5.45078 1.66699 7.50078 1.66699C9.54245 1.66699 11.2008 3.32533 11.2008 5.36699C11.1924 7.36699 9.61745 8.99199 7.63411 9.05866Z" stroke="#73819F" stroke-width="1.5" stroke-linecap="round" stroke-linejoin="round"/>
<path d="M13.6747 3.33301C15.2914 3.33301 16.5914 4.64134 16.5914 6.24967C16.5914 7.82468 15.3414 9.10801 13.7831 9.16634C13.7164 9.15801 13.6414 9.15801 13.5664 9.16634" stroke="#73819F" stroke-width="1.5" stroke-linecap="round" stroke-linejoin="round"/>
<path d="M3.46563 12.133C1.44896 13.483 1.44896 15.683 3.46563 17.0247C5.75729 18.558 9.51563 18.558 11.8073 17.0247C13.824 15.6747 13.824 13.4747 11.8073 12.133C9.52396 10.608 5.76562 10.608 3.46563 12.133Z" stroke="#73819F" stroke-width="1.5" stroke-linecap="round" stroke-linejoin="round"/>
<path d="M15.2852 16.667C15.8852 16.542 16.4518 16.3003 16.9185 15.942C18.2185 14.967 18.2185 13.3587 16.9185 12.3837C16.4602 12.0337 15.9018 11.8003 15.3102 11.667" stroke="#73819F" stroke-width="1.5" stroke-linecap="round" stroke-linejoin="round"/>
</svg>
