<svg width="20" height="20" viewBox="0 0 20 20" fill="none" xmlns="http://www.w3.org/2000/svg">
<path d="M1.66797 10.8753V12.5003C1.66797 16.667 3.33464 18.3337 7.5013 18.3337H12.5013C16.668 18.3337 18.3346 16.667 18.3346 12.5003V7.50033C18.3346 3.33366 16.668 1.66699 12.5013 1.66699H7.5013C3.33464 1.66699 1.66797 3.33366 1.66797 7.50033" stroke="#A0A4A8" stroke-width="1.5" stroke-linecap="round" stroke-linejoin="round"/>
<path d="M14.4598 7.54198L12.5098 13.8253C12.0431 15.317 9.95144 15.342 9.45977 13.8587L8.87644 12.1336C8.71811 11.6586 8.34311 11.2753 7.86811 11.1253L6.13478 10.542C4.65978 10.0503 4.68478 7.94199 6.17644 7.49199L12.4598 5.53365C13.6931 5.15865 14.8514 6.31698 14.4598 7.54198Z" stroke="#A0A4A8" stroke-width="1.5" stroke-linecap="round" stroke-linejoin="round"/>
</svg>
