<svg width="17" height="18" viewBox="0 0 17 18" fill="none" xmlns="http://www.w3.org/2000/svg">
<g id="Setting">
<path id="Path_33946" fill-rule="evenodd" clip-rule="evenodd" d="M15.3372 5.35305L14.8185 4.45298C14.3797 3.69138 13.4073 3.42864 12.6446 3.86564V3.86564C12.2816 4.07949 11.8484 4.14017 11.4406 4.03428C11.0328 3.92839 10.6838 3.66464 10.4707 3.30118C10.3336 3.07016 10.2599 2.80704 10.2571 2.53841V2.53841C10.2695 2.10773 10.107 1.69038 9.80669 1.38143C9.50636 1.07249 9.09378 0.89826 8.66292 0.898438H7.61792C7.1958 0.898433 6.79109 1.06664 6.49333 1.36583C6.19557 1.66502 6.02931 2.07053 6.03134 2.49264V2.49264C6.01883 3.36415 5.30873 4.06405 4.43714 4.06396C4.16851 4.06117 3.90538 3.98749 3.67436 3.85038V3.85038C2.91172 3.41339 1.93926 3.67612 1.50045 4.43772L0.94362 5.35305C0.50534 6.1137 0.764498 7.08555 1.52333 7.52697V7.52697C2.01658 7.81174 2.32044 8.33803 2.32044 8.90759C2.32044 9.47715 2.01658 10.0034 1.52333 10.2882V10.2882C0.765462 10.7267 0.506021 11.6961 0.94362 12.4545V12.4545L1.46994 13.3622C1.67554 13.7332 2.0205 14.007 2.42849 14.1229C2.83648 14.2389 3.27386 14.1875 3.64385 13.9801V13.9801C4.00757 13.7678 4.44099 13.7097 4.84778 13.8185C5.25457 13.9274 5.60103 14.1942 5.81013 14.5598C5.94725 14.7908 6.02092 15.0539 6.02371 15.3225V15.3225C6.02371 16.203 6.73746 16.9167 7.61792 16.9167H8.66292C9.5404 16.9168 10.2529 16.2076 10.2571 15.3302V15.3302C10.2551 14.9067 10.4224 14.5001 10.7218 14.2006C11.0212 13.9012 11.4279 13.7339 11.8513 13.736C12.1193 13.7431 12.3814 13.8165 12.6141 13.9495V13.9495C13.3748 14.3878 14.3466 14.1287 14.788 13.3698V13.3698L15.3372 12.4545C15.5498 12.0896 15.6081 11.655 15.4993 11.247C15.3905 10.839 15.1235 10.4912 14.7575 10.2806V10.2806C14.3915 10.07 14.1245 9.72219 14.0157 9.31416C13.9069 8.90613 13.9652 8.47156 14.1778 8.10668C14.316 7.86532 14.5161 7.66521 14.7575 7.52697V7.52697C15.5118 7.08579 15.7703 6.11962 15.3372 5.36068V5.36068V5.35305Z" stroke="#4B67E2" stroke-width="1.3" stroke-linecap="round" stroke-linejoin="round"/>
<circle id="Ellipse_737" cx="8.14601" cy="8.90773" r="2.1968" stroke="#4B67E2" stroke-width="1.3" stroke-linecap="round" stroke-linejoin="round"/>
</g>
</svg>
