<svg width="28" height="28" viewBox="0 0 28 28" fill="none" xmlns="http://www.w3.org/2000/svg">
<g id="uim:apps">
<path id="Vector" d="M11.6673 2.33398H3.50065C2.85632 2.33398 2.33398 2.85632 2.33398 3.50065V11.6673C2.33398 12.3116 2.85632 12.834 3.50065 12.834H11.6673C12.3116 12.834 12.834 12.3116 12.834 11.6673V3.50065C12.834 2.85632 12.3116 2.33398 11.6673 2.33398Z" fill="#1976D2"/>
<path id="Vector_2" opacity="0.5" d="M11.6673 15.166H3.50065C2.85632 15.166 2.33398 15.6884 2.33398 16.3327V24.4993C2.33398 25.1437 2.85632 25.666 3.50065 25.666H11.6673C12.3116 25.666 12.834 25.1437 12.834 24.4993V16.3327C12.834 15.6884 12.3116 15.166 11.6673 15.166Z" fill="#1976D2"/>
<path id="Vector_3" opacity="0.5" d="M24.4993 2.33398H16.3327C15.6884 2.33398 15.166 2.85632 15.166 3.50065V11.6673C15.166 12.3116 15.6884 12.834 16.3327 12.834H24.4993C25.1437 12.834 25.666 12.3116 25.666 11.6673V3.50065C25.666 2.85632 25.1437 2.33398 24.4993 2.33398Z" fill="#1976D2"/>
<path id="Vector_4" opacity="0.5" d="M24.4993 15.166H16.3327C15.6884 15.166 15.166 15.6884 15.166 16.3327V24.4993C15.166 25.1437 15.6884 25.666 16.3327 25.666H24.4993C25.1437 25.666 25.666 25.1437 25.666 24.4993V16.3327C25.666 15.6884 25.1437 15.166 24.4993 15.166Z" fill="#1976D2"/>
</g>
</svg>
