<svg width="20" height="20" viewBox="0 0 20 20" fill="none" xmlns="http://www.w3.org/2000/svg">
<path d="M13.493 1.66699H6.50964C3.4763 1.66699 1.66797 3.47533 1.66797 6.50866V13.492C1.66797 15.8337 2.74297 17.442 4.63464 18.0503C5.18464 18.242 5.81797 18.3337 6.50964 18.3337H13.493C14.1846 18.3337 14.818 18.242 15.368 18.0503C17.2596 17.442 18.3346 15.8337 18.3346 13.492V6.50866C18.3346 3.47533 16.5263 1.66699 13.493 1.66699ZM17.0846 13.492C17.0846 15.2753 16.3846 16.4003 14.9763 16.867C14.168 15.2753 12.2513 14.142 10.0013 14.142C7.7513 14.142 5.84297 15.267 5.0263 16.867H5.01797C3.6263 16.417 2.91797 15.2837 2.91797 13.5003V6.50866C2.91797 4.15866 4.15964 2.91699 6.50964 2.91699H13.493C15.843 2.91699 17.0846 4.15866 17.0846 6.50866V13.492Z" fill="#A0A4A8"/>
<path d="M10.0029 6.66699C8.35286 6.66699 7.01953 8.00033 7.01953 9.65033C7.01953 11.3003 8.35286 12.642 10.0029 12.642C11.6529 12.642 12.9862 11.3003 12.9862 9.65033C12.9862 8.00033 11.6529 6.66699 10.0029 6.66699Z" fill="#A0A4A8"/>
</svg>
