<svg width="20" height="20" viewBox="0 0 20 20" fill="none" xmlns="http://www.w3.org/2000/svg">
<path fill-rule="evenodd" clip-rule="evenodd" d="M10 5.83398C10.3452 5.83398 10.625 6.11381 10.625 6.45898V10.834C10.625 11.1792 10.3452 11.459 10 11.459C9.65482 11.459 9.375 11.1792 9.375 10.834V6.45898C9.375 6.11381 9.65482 5.83398 10 5.83398Z" fill="#73819F"/>
<path fill-rule="evenodd" clip-rule="evenodd" d="M10.9979 2.559C10.3726 2.20221 9.61022 2.20402 8.99661 2.55827L4.04889 5.41528C3.43061 5.77948 3.05078 6.44173 3.05078 7.15035V12.8503C3.05078 13.57 3.43277 14.2297 4.04661 14.5841L8.99421 17.441C8.99461 17.4413 8.995 17.4415 8.9954 17.4417C9.62068 17.7985 10.383 17.7967 10.9966 17.4424C10.9966 17.4425 10.9966 17.4424 10.9966 17.4424L15.9425 14.5865C15.9431 14.5861 15.9438 14.5857 15.9444 14.5854C16.5627 14.2212 16.9425 13.5589 16.9425 12.8503V7.15035C16.9425 6.43449 16.5636 5.78002 15.9444 5.41527C15.9437 5.41491 15.9431 5.41454 15.9425 5.41417L10.9991 2.55964C10.9987 2.55943 10.9983 2.55921 10.9979 2.559ZM8.37163 1.47572C9.37432 0.896849 10.6114 0.898444 11.6192 1.47434L11.6217 1.47574L16.5758 4.33645C17.5721 4.92192 18.1925 5.9836 18.1925 7.15035V12.8503C18.1925 14.0076 17.5731 15.0782 16.5758 15.6642L16.5717 15.6666L11.6217 18.5249C10.619 19.1038 9.38185 19.1022 8.37404 18.5263L8.37159 18.5249L3.42163 15.6666C2.41881 15.0877 1.80078 14.014 1.80078 12.8503V7.15035C1.80078 5.99303 2.42019 4.9225 3.41748 4.33647L3.42158 4.33406L8.37163 1.47572Z" fill="#73819F"/>
<path fill-rule="evenodd" clip-rule="evenodd" d="M10.0013 12.667C10.4615 12.667 10.8346 13.0401 10.8346 13.5003V13.5837C10.8346 14.0439 10.4615 14.417 10.0013 14.417C9.54106 14.417 9.16797 14.0439 9.16797 13.5837V13.5003C9.16797 13.0401 9.54106 12.667 10.0013 12.667Z" fill="#73819F"/>
</svg>
